<svg data-v-0dd9719b="" version="1.0" xmlns="http://www.w3.org/2000/svg" xmlns:xlink="http://www.w3.org/1999/xlink" width="100%" height="100%" viewBox="0 0 340.000000 250.000000" preserveAspectRatio="xMidYMid meet" color-interpolation-filters="sRGB" style="margin: auto;"> <rect data-v-0dd9719b="" x="0" y="0" width="100%" height="100%" fill="#FFFFFF" fill-opacity="1" class="background"></rect> <rect data-v-0dd9719b="" x="0" y="0" width="100%" height="100%" fill="url(#watermark)" fill-opacity="1" class="watermarklayer"></rect> <g data-v-0dd9719b="" fill="#DB4444" class="pmspacesvg" transform="translate(56.35985565185547,7.862907409667969)"><!----> <g><!----> <!----> <!----> <g fill-opacity="1" mask="url(#4887935d-a592-458b-af85-d2ded4f036d3)"><g><rect data-gra="graph-name-bg" stroke-width="2" class="i-icon-bg" x="0" y="0" width="227.28030395507812" height="234.27418518066406"></rect> <!----> <!----> </g> <g transform="translate(10,10)"><g data-gra="path-name" fill-rule="" stroke="#DB4444" class="tp-name" fill="#FFFFFF" fill-opacity="1"><g transform="scale(5.979999999999984)"><g><path d="M8.43-20.2924Q9.93-24.5798 10.52-26.4519 11.12-28.323999999999998 11.55-30.0991L11.55-30.0991Q9.6-30.0021 7.66-29.8178 5.71-29.6238 3.76-29.6238L3.76-29.6238Q3.33-29.6238 2.83-29.7499 2.34-29.876 1.94-30.1088 1.55-30.3416 1.33-30.7102 1.12-31.078799999999998 1.22-31.554100000000002L1.22-31.554100000000002Q1.42-32.4368 2.65-33.0867 3.88-33.7463 5.8-34.2216 7.72-34.7066 10.17-35.0267 12.62-35.346799999999995 15.25-35.5408 17.88-35.7348 20.53-35.8512 23.18-35.9579 25.52-36.0064 27.85-36.0549 29.71-36.0937 31.56-36.1325 32.58-36.151900000000005L32.58-36.151900000000005Q32.86-36.151900000000005 33.25-36.142199999999995 33.64-36.1325 34.06-36.0646 34.48-36.0064 34.85-35.909400000000005 35.22-35.812400000000004 35.45-35.6378L35.45-35.6378Q35.85-35.317699999999995 35.85-34.823L35.85-34.823Q35.85-34.435 35.71-34.0082 35.57-33.591100000000004 35.39-33.2516L35.39-33.2516Q35.09-32.6599 34.57-32.310700000000004 34.05-31.9712 33.44-31.786900000000003 32.83-31.6026 32.17-31.525 31.51-31.447400000000002 30.9-31.427999999999997L30.9-31.427999999999997Q27.98-31.301900000000003 25.01-31.1467 22.04-30.9818 19.12-30.6423L19.12-30.6423Q18.87-30.593799999999998 18.59-30.555 18.31-30.5162 18.13-30.322200000000002L18.13-30.322200000000002Q17.77-29.4298 17.47-28.5083 17.16-27.5868 16.86-26.694399999999998L16.86-26.694399999999998Q16.76-26.403399999999998 16.57-25.9184 16.38-25.4431 16.17-24.909599999999998 15.97-24.3858 15.82-23.8814 15.67-23.377000000000002 15.64-23.0278L15.64-23.0278Q17.32-23.0278 18.99-23.1054 20.67-23.1733 22.34-23.1733L22.34-23.1733Q23.28-23.1733 23.82-22.901699999999998 24.35-22.6301 24.57-22.212999999999997 24.78-21.7959 24.73-21.2818 24.68-20.758 24.46-20.2827 24.25-19.7977 23.89-19.4097 23.54-19.012 23.13-18.817999999999998L23.13-18.817999999999998Q22.55-18.5658 21.89-18.4979L21.89-18.4979Q19.91-18.3039 17.9-18.177799999999998 15.89-18.0517 13.69-17.780099999999997L13.69-17.780099999999997Q13.53-17.5085 13.25-16.8683 12.97-16.2281 12.66-15.3454 12.34-14.453 11.98-13.4345 11.63-12.416 11.32-11.3781 11.02-10.3402 10.79-9.3799 10.56-8.419599999999999 10.45-7.6727 10.33-6.9161 10.38-6.4796 10.44-6.033399999999999 10.71-6.033399999999999L10.71-6.033399999999999Q11.45-6.033399999999999 12.17-6.1304 12.9-6.227399999999999 13.63-6.275899999999999L13.63-6.275899999999999Q16.33-6.547499999999999 19.13-6.8675999999999995 21.94-7.1876999999999995 24.65-7.1876999999999995L24.65-7.1876999999999995Q25.75-7.1876999999999995 26.38-6.9355 27.02-6.6735999999999995 27.29-6.275899999999999 27.57-5.8879 27.54-5.393199999999999 27.5-4.898499999999999 27.26-4.4232 27.02-3.9381999999999997 26.6-3.5308 26.18-3.1234 25.67-2.91L25.67-2.91Q25.16-2.6578 24.54-2.5608 23.92-2.4638 23.33-2.3862L23.33-2.3862Q19.63-1.9690999999999999 15.97-1.455 12.31-0.9311999999999999 8.61-0.46559999999999996L8.61-0.46559999999999996Q8.05-0.3201 7.59-0.3201L7.59-0.3201Q6.45-0.3201 5.81-1.0185 5.18-1.7266 4.91-2.8421000000000003 4.65-3.9673 4.68-5.335 4.72-6.7027 4.91-8.0122 5.1-9.331399999999999 5.36-10.4566 5.61-11.572099999999999 5.79-12.1929L5.79-12.1929Q6.14-13.4733 6.54-14.744 6.93-16.005 8.43-20.2924Z" transform="translate(-1.187741994857788, 36.15190124511719)" stroke-width="0.4" stroke-linejoin="round" mask="url(#vghQ5J4HZclXE9CxSiLEl)"></path></g> <!----> <!----> <!----> <!----> <!----> <!----> <!----></g></g> <!----></g></g> <!----></g></g><mask data-mask="name-path" id="vghQ5J4HZclXE9CxSiLEl"><path d="M8.43-20.2924Q9.93-24.5798 10.52-26.4519 11.12-28.323999999999998 11.55-30.0991L11.55-30.0991Q9.6-30.0021 7.66-29.8178 5.71-29.6238 3.76-29.6238L3.76-29.6238Q3.33-29.6238 2.83-29.7499 2.34-29.876 1.94-30.1088 1.55-30.3416 1.33-30.7102 1.12-31.078799999999998 1.22-31.554100000000002L1.22-31.554100000000002Q1.42-32.4368 2.65-33.0867 3.88-33.7463 5.8-34.2216 7.72-34.7066 10.17-35.0267 12.62-35.346799999999995 15.25-35.5408 17.88-35.7348 20.53-35.8512 23.18-35.9579 25.52-36.0064 27.85-36.0549 29.71-36.0937 31.56-36.1325 32.58-36.151900000000005L32.58-36.151900000000005Q32.86-36.151900000000005 33.25-36.142199999999995 33.64-36.1325 34.06-36.0646 34.48-36.0064 34.85-35.909400000000005 35.22-35.812400000000004 35.45-35.6378L35.45-35.6378Q35.85-35.317699999999995 35.85-34.823L35.85-34.823Q35.85-34.435 35.71-34.0082 35.57-33.591100000000004 35.39-33.2516L35.39-33.2516Q35.09-32.6599 34.57-32.310700000000004 34.05-31.9712 33.44-31.786900000000003 32.83-31.6026 32.17-31.525 31.51-31.447400000000002 30.9-31.427999999999997L30.9-31.427999999999997Q27.98-31.301900000000003 25.01-31.1467 22.04-30.9818 19.12-30.6423L19.12-30.6423Q18.87-30.593799999999998 18.59-30.555 18.31-30.5162 18.13-30.322200000000002L18.13-30.322200000000002Q17.77-29.4298 17.47-28.5083 17.16-27.5868 16.86-26.694399999999998L16.86-26.694399999999998Q16.76-26.403399999999998 16.57-25.9184 16.38-25.4431 16.17-24.909599999999998 15.97-24.3858 15.82-23.8814 15.67-23.377000000000002 15.64-23.0278L15.64-23.0278Q17.32-23.0278 18.99-23.1054 20.67-23.1733 22.34-23.1733L22.34-23.1733Q23.28-23.1733 23.82-22.901699999999998 24.35-22.6301 24.57-22.212999999999997 24.78-21.7959 24.73-21.2818 24.68-20.758 24.46-20.2827 24.25-19.7977 23.89-19.4097 23.54-19.012 23.13-18.817999999999998L23.13-18.817999999999998Q22.55-18.5658 21.89-18.4979L21.89-18.4979Q19.91-18.3039 17.9-18.177799999999998 15.89-18.0517 13.69-17.780099999999997L13.69-17.780099999999997Q13.53-17.5085 13.25-16.8683 12.97-16.2281 12.66-15.3454 12.34-14.453 11.98-13.4345 11.63-12.416 11.32-11.3781 11.02-10.3402 10.79-9.3799 10.56-8.419599999999999 10.45-7.6727 10.33-6.9161 10.38-6.4796 10.44-6.033399999999999 10.71-6.033399999999999L10.71-6.033399999999999Q11.45-6.033399999999999 12.17-6.1304 12.9-6.227399999999999 13.63-6.275899999999999L13.63-6.275899999999999Q16.33-6.547499999999999 19.13-6.8675999999999995 21.94-7.1876999999999995 24.65-7.1876999999999995L24.65-7.1876999999999995Q25.75-7.1876999999999995 26.38-6.9355 27.02-6.6735999999999995 27.29-6.275899999999999 27.57-5.8879 27.54-5.393199999999999 27.5-4.898499999999999 27.26-4.4232 27.02-3.9381999999999997 26.6-3.5308 26.18-3.1234 25.67-2.91L25.67-2.91Q25.16-2.6578 24.54-2.5608 23.92-2.4638 23.33-2.3862L23.33-2.3862Q19.63-1.9690999999999999 15.97-1.455 12.31-0.9311999999999999 8.61-0.46559999999999996L8.61-0.46559999999999996Q8.05-0.3201 7.59-0.3201L7.59-0.3201Q6.45-0.3201 5.81-1.0185 5.18-1.7266 4.91-2.8421000000000003 4.65-3.9673 4.68-5.335 4.72-6.7027 4.91-8.0122 5.1-9.331399999999999 5.36-10.4566 5.61-11.572099999999999 5.79-12.1929L5.79-12.1929Q6.14-13.4733 6.54-14.744 6.93-16.005 8.43-20.2924Z" stroke-width="0.4" stroke-linejoin="round" stroke="#000" fill="#fff"></path></mask><mask id="4887935d-a592-458b-af85-d2ded4f036d3"><g fill="white"><rect data-gra="graph-name-bg" stroke-width="2" class="i-icon-bg" x="0" y="0" width="227.28030395507812" height="234.27418518066406"></rect>   </g> <g transform="translate(10,10)" fill="black"><g data-gra="path-name" fill-rule="" stroke="#DB4444" class="tp-name" fill-opacity="1"><g transform="scale(5.979999999999984)"><g><path d="M8.43-20.2924Q9.93-24.5798 10.52-26.4519 11.12-28.323999999999998 11.55-30.0991L11.55-30.0991Q9.6-30.0021 7.66-29.8178 5.71-29.6238 3.76-29.6238L3.76-29.6238Q3.33-29.6238 2.83-29.7499 2.34-29.876 1.94-30.1088 1.55-30.3416 1.33-30.7102 1.12-31.078799999999998 1.22-31.554100000000002L1.22-31.554100000000002Q1.42-32.4368 2.65-33.0867 3.88-33.7463 5.8-34.2216 7.72-34.7066 10.17-35.0267 12.62-35.346799999999995 15.25-35.5408 17.88-35.7348 20.53-35.8512 23.18-35.9579 25.52-36.0064 27.85-36.0549 29.71-36.0937 31.56-36.1325 32.58-36.151900000000005L32.58-36.151900000000005Q32.86-36.151900000000005 33.25-36.142199999999995 33.64-36.1325 34.06-36.0646 34.48-36.0064 34.85-35.909400000000005 35.22-35.812400000000004 35.45-35.6378L35.45-35.6378Q35.85-35.317699999999995 35.85-34.823L35.85-34.823Q35.85-34.435 35.71-34.0082 35.57-33.591100000000004 35.39-33.2516L35.39-33.2516Q35.09-32.6599 34.57-32.310700000000004 34.05-31.9712 33.44-31.786900000000003 32.83-31.6026 32.17-31.525 31.51-31.447400000000002 30.9-31.427999999999997L30.9-31.427999999999997Q27.98-31.301900000000003 25.01-31.1467 22.04-30.9818 19.12-30.6423L19.12-30.6423Q18.87-30.593799999999998 18.59-30.555 18.31-30.5162 18.13-30.322200000000002L18.13-30.322200000000002Q17.77-29.4298 17.47-28.5083 17.16-27.5868 16.86-26.694399999999998L16.86-26.694399999999998Q16.76-26.403399999999998 16.57-25.9184 16.38-25.4431 16.17-24.909599999999998 15.97-24.3858 15.82-23.8814 15.67-23.377000000000002 15.64-23.0278L15.64-23.0278Q17.32-23.0278 18.99-23.1054 20.67-23.1733 22.34-23.1733L22.34-23.1733Q23.28-23.1733 23.82-22.901699999999998 24.35-22.6301 24.57-22.212999999999997 24.78-21.7959 24.73-21.2818 24.68-20.758 24.46-20.2827 24.25-19.7977 23.89-19.4097 23.54-19.012 23.13-18.817999999999998L23.13-18.817999999999998Q22.55-18.5658 21.89-18.4979L21.89-18.4979Q19.91-18.3039 17.9-18.177799999999998 15.89-18.0517 13.69-17.780099999999997L13.69-17.780099999999997Q13.53-17.5085 13.25-16.8683 12.97-16.2281 12.66-15.3454 12.34-14.453 11.98-13.4345 11.63-12.416 11.32-11.3781 11.02-10.3402 10.79-9.3799 10.56-8.419599999999999 10.45-7.6727 10.33-6.9161 10.38-6.4796 10.44-6.033399999999999 10.71-6.033399999999999L10.71-6.033399999999999Q11.45-6.033399999999999 12.17-6.1304 12.9-6.227399999999999 13.63-6.275899999999999L13.63-6.275899999999999Q16.33-6.547499999999999 19.13-6.8675999999999995 21.94-7.1876999999999995 24.65-7.1876999999999995L24.65-7.1876999999999995Q25.75-7.1876999999999995 26.38-6.9355 27.02-6.6735999999999995 27.29-6.275899999999999 27.57-5.8879 27.54-5.393199999999999 27.5-4.898499999999999 27.26-4.4232 27.02-3.9381999999999997 26.6-3.5308 26.18-3.1234 25.67-2.91L25.67-2.91Q25.16-2.6578 24.54-2.5608 23.92-2.4638 23.33-2.3862L23.33-2.3862Q19.63-1.9690999999999999 15.97-1.455 12.31-0.9311999999999999 8.61-0.46559999999999996L8.61-0.46559999999999996Q8.05-0.3201 7.59-0.3201L7.59-0.3201Q6.45-0.3201 5.81-1.0185 5.18-1.7266 4.91-2.8421000000000003 4.65-3.9673 4.68-5.335 4.72-6.7027 4.91-8.0122 5.1-9.331399999999999 5.36-10.4566 5.61-11.572099999999999 5.79-12.1929L5.79-12.1929Q6.14-13.4733 6.54-14.744 6.93-16.005 8.43-20.2924Z" transform="translate(-1.187741994857788, 36.15190124511719)" stroke-width="0.4" stroke-linejoin="round" mask="url(#vghQ5J4HZclXE9CxSiLEl)"></path></g>       </g></g> </g></mask><defs v-gra="od"></defs></svg>