<svg data-v-0dd9719b="" version="1.0" xmlns="http://www.w3.org/2000/svg" xmlns:xlink="http://www.w3.org/1999/xlink" width="100%" height="100%" viewBox="0 0 340.000000 250.000000" preserveAspectRatio="xMidYMid meet" color-interpolation-filters="sRGB" style="margin: auto;">
	<g data-v-0dd9719b="" fill="#DB4444" class="pmspacesvg" transform="translate(15.53240966796875,86.07867050170898)">
		<!--  -->
		<g>
			<rect data-gra="graph-name" height="10" width="10" x="0" y="67.84265899658203">
			</rect>
			<rect data-gra="graph-name" height="10" width="10" x="298.9351806640625" y="0">
			</rect>
			<!--  -->
			<!--  -->
			<g fill-opacity="1" mask="url(#225a0329-d017-42d6-9327-826a8756ddb6)">
				<g>
					<rect data-gra="graph-name-bg" stroke-width="2" class="i-icon-bg" x="0" y="0" width="308.9351806640625" height="77.84265518188477" rx="10" ry="10">
					</rect>
					<!--  -->
					<!--  -->
				</g>
				<g transform="translate(10,10)">
					<g data-gra="path-name" fill-rule="" class="tp-name" fill="#F7F7F7" fill-opacity="1">
						<g transform="scale(1.2399999999999864)">
							<g>
								<path d="M8.43-20.2924Q9.93-24.5798 10.52-26.4519 11.12-28.323999999999998 11.55-30.0991L11.55-30.0991Q9.6-30.0021 7.66-29.8178 5.71-29.6238 3.76-29.6238L3.76-29.6238Q3.33-29.6238 2.83-29.7499 2.34-29.876 1.94-30.1088 1.55-30.3416 1.33-30.7102 1.12-31.078799999999998 1.22-31.554100000000002L1.22-31.554100000000002Q1.42-32.4368 2.65-33.0867 3.88-33.7463 5.8-34.2216 7.72-34.7066 10.17-35.0267 12.62-35.346799999999995 15.25-35.5408 17.88-35.7348 20.53-35.8512 23.18-35.9579 25.52-36.0064 27.85-36.0549 29.71-36.0937 31.56-36.1325 32.58-36.151900000000005L32.58-36.151900000000005Q32.86-36.151900000000005 33.25-36.142199999999995 33.64-36.1325 34.06-36.0646 34.48-36.0064 34.85-35.909400000000005 35.22-35.812400000000004 35.45-35.6378L35.45-35.6378Q35.85-35.317699999999995 35.85-34.823L35.85-34.823Q35.85-34.435 35.71-34.0082 35.57-33.591100000000004 35.39-33.2516L35.39-33.2516Q35.09-32.6599 34.57-32.310700000000004 34.05-31.9712 33.44-31.786900000000003 32.83-31.6026 32.17-31.525 31.51-31.447400000000002 30.9-31.427999999999997L30.9-31.427999999999997Q27.98-31.301900000000003 25.01-31.1467 22.04-30.9818 19.12-30.6423L19.12-30.6423Q18.87-30.593799999999998 18.59-30.555 18.31-30.5162 18.13-30.322200000000002L18.13-30.322200000000002Q17.77-29.4298 17.47-28.5083 17.16-27.5868 16.86-26.694399999999998L16.86-26.694399999999998Q16.76-26.403399999999998 16.57-25.9184 16.38-25.4431 16.17-24.909599999999998 15.97-24.3858 15.82-23.8814 15.67-23.377000000000002 15.64-23.0278L15.64-23.0278Q17.32-23.0278 18.99-23.1054 20.67-23.1733 22.34-23.1733L22.34-23.1733Q23.28-23.1733 23.82-22.901699999999998 24.35-22.6301 24.57-22.212999999999997 24.78-21.7959 24.73-21.2818 24.68-20.758 24.46-20.2827 24.25-19.7977 23.89-19.4097 23.54-19.012 23.13-18.817999999999998L23.13-18.817999999999998Q22.55-18.5658 21.89-18.4979L21.89-18.4979Q19.91-18.3039 17.9-18.177799999999998 15.89-18.0517 13.69-17.780099999999997L13.69-17.780099999999997Q13.53-17.5085 13.25-16.8683 12.97-16.2281 12.66-15.3454 12.34-14.453 11.98-13.4345 11.63-12.416 11.32-11.3781 11.02-10.3402 10.79-9.3799 10.56-8.419599999999999 10.45-7.6727 10.33-6.9161 10.38-6.4796 10.44-6.033399999999999 10.71-6.033399999999999L10.71-6.033399999999999Q11.45-6.033399999999999 12.17-6.1304 12.9-6.227399999999999 13.63-6.275899999999999L13.63-6.275899999999999Q16.33-6.547499999999999 19.13-6.8675999999999995 21.94-7.1876999999999995 24.65-7.1876999999999995L24.65-7.1876999999999995Q25.75-7.1876999999999995 26.38-6.9355 27.02-6.6735999999999995 27.29-6.275899999999999 27.57-5.8879 27.54-5.393199999999999 27.5-4.898499999999999 27.26-4.4232 27.02-3.9381999999999997 26.6-3.5308 26.18-3.1234 25.67-2.91L25.67-2.91Q25.16-2.6578 24.54-2.5608 23.92-2.4638 23.33-2.3862L23.33-2.3862Q19.63-1.9690999999999999 15.97-1.455 12.31-0.9311999999999999 8.61-0.46559999999999996L8.61-0.46559999999999996Q8.05-0.3201 7.59-0.3201L7.59-0.3201Q6.45-0.3201 5.81-1.0185 5.18-1.7266 4.91-2.8421000000000003 4.65-3.9673 4.68-5.335 4.72-6.7027 4.91-8.0122 5.1-9.331399999999999 5.36-10.4566 5.61-11.572099999999999 5.79-12.1929L5.79-12.1929Q6.14-13.4733 6.54-14.744 6.93-16.005 8.43-20.2924ZM34.86-1.3774L34.86-1.3774Q34.43-1.1058 34.02-0.9894 33.62-0.8633 33.08-0.8633L33.08-0.8633Q32.58-0.8633 32.04-1.0185 31.51-1.1834 31.07-1.4938 30.62-1.7945 30.34-2.2407 30.06-2.6869 30.06-3.2301L30.06-3.2301Q30.06-3.6957 30.33-4.074 30.6-4.462 30.88-4.8015L30.88-4.8015Q31.05-4.9955 31.6-5.6551 32.14-6.305 32.94-7.2265 33.74-8.148 34.68-9.273200000000001 35.62-10.3887 36.6-11.543 37.58-12.6876 38.48-13.764299999999999 39.38-14.8507 40.09-15.713999999999999 40.8-16.5773 41.22-17.1205 41.64-17.6637 41.64-17.7316L41.64-17.7316Q41.64-18.0808 41.13-18.9441 40.63-19.7977 39.88-21.0296 39.13-22.261499999999998 38.25-23.7941 37.38-25.317 36.63-27.0048 35.88-28.6926 35.37-30.4677 34.86-32.2428 34.86-33.9888L34.86-33.9888Q34.86-34.2313 35.04-34.532000000000004 35.22-34.823 35.47-35.0946 35.72-35.3662 36-35.599000000000004 36.28-35.831799999999994 36.46-35.9579L36.46-35.9579Q36.89-36.2295 37.36-36.355599999999995 37.83-36.472 38.34-36.472L38.34-36.472Q39.46-36.472 40.33-35.666900000000005 41.21-34.8521 41.91-33.5523 42.61-32.2622 43.15-30.6908 43.7-29.1097 44.15-27.5674 44.61-26.0348 45-24.7156 45.4-23.3964 45.8-22.6592L45.8-22.6592Q47.63-25.317 49.78-27.8293 51.92-30.3416 53.96-32.882999999999996L53.96-32.882999999999996Q54.41-33.4747 54.89-34.095499999999994 55.38-34.726 55.91-35.2692L55.91-35.2692Q56.49-35.7833 57.18-36.1325 57.87-36.472 58.68-36.472L58.68-36.472Q59.08-36.472 59.55-36.268299999999996 60.02-36.0549 60.43-35.7251 60.84-35.3953 61.1-34.9685 61.37-34.551399999999994 61.37-34.134299999999996L61.37-34.134299999999996Q61.37-33.9112 61.28-33.707499999999996 61.19-33.4941 61.06-33.3001L61.06-33.3001Q60.76-32.7763 60.35-32.300999999999995 59.95-31.815999999999995 59.54-31.3504L59.54-31.3504Q58.25-29.798399999999997 56.85-28.227 55.45-26.645899999999997 54.06-25.0357 52.66-23.4255 51.34-21.7862 50.02-20.1469 48.85-18.5173L48.85-18.5173Q48.78-18.420299999999997 48.67-18.265099999999997 48.57-18.1002 48.57-17.9838L48.57-17.9838Q48.57-17.8577 49.09-17.0138 49.61-16.1796 50.46-14.8895 51.31-13.5994 52.42-11.9795 53.52-10.369299999999999 54.68-8.6815 55.83-6.9937 56.96-5.3738 58.09-3.7441999999999998 59-2.425 59.9-1.1058 60.51-0.2231 61.12 0.6692999999999999 61.22 0.8341999999999999L61.22 0.8341999999999999Q61.98 2.1437 62.38 3.2107 62.79 4.2874 62.84 5.0343 62.89 5.7909 62.56 6.208 62.23 6.6251 61.52 6.6251L61.52 6.6251Q60.25 6.6251 57.87 5.2185999999999995L57.87 5.2185999999999995Q57.41 4.946999999999999 57.04 4.578399999999999 56.67 4.2097999999999995 56.34 3.7927L56.34 3.7927Q55.91 3.2301 55.58 2.5996 55.25 1.9690999999999999 54.77 1.4064999999999999L54.77 1.4064999999999999Q53.78 0.17459999999999998 52.5-1.5423 51.21-3.2495 49.85-5.1216 48.5-6.9937 47.14-8.9046 45.78-10.8155 44.61-12.4645L44.61-12.4645Q44.26-12.1444 43.96-11.7855 43.67-11.426599999999999 43.39-11.058L43.39-11.058Q42.48-9.9522 41.73-9.098600000000001 40.98-8.2547 40.26-7.4593 39.53-6.6735999999999995 38.77-5.8393999999999995 38.01-4.9955 37.07-3.8896999999999995L37.07-3.8896999999999995Q36.94-3.7441999999999998 36.63-3.3659 36.31-2.9778999999999995 35.95-2.5608 35.6-2.1437 35.29-1.7945 34.99-1.455 34.86-1.3774ZM81.81-14.016499999999999L81.81-14.016499999999999Q82.29-14.3075 82.72-14.3075L82.72-14.3075Q83.41-14.3075 83.67-13.58 83.94-12.8525 83.94-11.8437L83.94-11.8437Q83.94-11.0386 83.66-10.233500000000001 83.38-9.4284 82.94-8.6815 82.49-7.9346 81.94-7.2556 81.38-6.5766 80.84-6.014L80.84-6.014Q79.45-4.6075 77.75-3.5016999999999996 76.04-2.3862 74.15-1.6101999999999999 72.26-0.8341999999999999 70.27-0.41709999999999997 68.28 0 66.24 0L66.24 0Q63.35 0 61.38-0.873 59.41-1.746 58.21-3.2301 57-4.7044999999999995 56.49-6.634799999999999 55.99-8.5748 56-10.6894 56.01-12.803999999999998 56.46-14.9574 56.9-17.1205 57.64-19.0411L57.64-19.0411Q58.42-21.107200000000002 59.63-23.2218 60.84-25.3461 62.38-27.3152 63.93-29.2843 65.8-31.020599999999998 67.67-32.7569 69.79-34.0373 71.91-35.317699999999995 74.23-36.0549 76.55-36.7921 79.02-36.7921L79.02-36.7921Q80.36-36.7921 81.57-36.4235 82.77-36.0549 83.71-35.3274 84.65-34.5999 85.2-33.5426 85.74-32.4853 85.74-31.1079L85.74-31.1079Q85.74-29.5753 85.36-28.1785 84.98-26.772000000000002 84.35-25.5692 83.71-24.3567 82.86-23.386699999999998 82.01-22.4167 81.08-21.708599999999997 80.16-21.0102 79.19-20.6222 78.23-20.2439 77.37-20.2439L77.37-20.2439Q76.58-20.2439 75.92-20.564 75.26-20.8841 74.8-21.5825 74.34-22.2906 74.12-23.386699999999998 73.89-24.482799999999997 73.99-26.005699999999997L73.99-26.005699999999997Q74.06-26.8981 74.5-27.4025 74.93-27.9069 75.55-28.2076 76.17-28.517999999999997 76.88-28.7217 77.59-28.915699999999998 78.19-29.197 78.79-29.4783 79.18-29.9148 79.57-30.3416 79.55-31.1079L79.55-31.1079Q79.55-31.3504 79.5-31.4765L79.5-31.4765Q79.32-31.6026 79.16-31.6123 78.99-31.622 78.79-31.622L78.79-31.622Q77.16-31.622 75.49-30.8557 73.81-30.0991 72.21-28.7799 70.61-27.4607 69.13-25.7147 67.64-23.968700000000002 66.4-21.989900000000002 65.15-20.0208 64.2-17.9256 63.25-15.840099999999998 62.69-13.861299999999998 62.13-11.892199999999999 62.03-10.1462 61.93-8.4002 62.41-7.0809999999999995 62.89-5.7618 63.98-4.9955 65.08-4.2389 66.9-4.2389L66.9-4.2389Q69.62-4.2389 71.63-4.859699999999999 73.63-5.4902 75.09-6.4796 76.55-7.4593 77.58-8.633000000000001 78.61-9.8067 79.36-10.9028 80.11-11.998899999999999 80.68-12.8428 81.25-13.696399999999999 81.81-14.016499999999999ZM88.84 1.7266L88.84 1.7266Q88.31 1.7266 87.67 1.5907999999999998 87.04 1.455 86.48 1.1737 85.92 0.8827 85.54 0.4268 85.16-0.029099999999999997 85.16-0.6692999999999999L85.16-0.6692999999999999Q85.16-0.9602999999999999 85.29-1.2027999999999999 85.41-1.455 85.62-1.6781 85.82-1.9012 86.05-2.0854999999999997 86.28-2.2697999999999996 86.48-2.4638L86.48-2.4638Q86.91-2.8809 87.19-3.4435 87.47-4.0158 87.67-4.578399999999999L87.67-4.578399999999999Q88.89-8.0025 89.97-11.5139 91.05-15.0253 92.04-18.5658 93.03-22.116 93.96-25.6759 94.88-29.2358 95.82-32.7278L95.82-32.7278Q95.98-33.3001 96.08-33.99849999999999 96.18-34.7066 96.36-35.308 96.54-35.909400000000005 96.85-36.3265 97.17-36.7436 97.73-36.7436L97.73-36.7436Q97.93-36.7436 98.36-36.627199999999995L98.36-36.627199999999995Q99.18-36.3265 99.92-36.0064 100.67-35.686299999999996 101.26-35.308 101.84-34.92 102.2-34.4835 102.55-34.0373 102.55-33.5426L102.55-33.5426Q102.55-33.2516 102.45-32.7763 102.35-32.310700000000004 102.2-31.7966 102.04-31.2825 101.89-30.7975 101.74-30.322200000000002 101.64-30.0021L101.64-30.0021Q101.03-28.0233 100.33-25.763199999999998 99.63-23.493399999999998 98.92-21.116899999999998 98.21-18.7404 97.49-16.3639 96.76-13.9874 96.1-11.7758 95.44-9.554499999999999 94.85-7.6145 94.25-5.6648 93.79-4.1613L93.79-4.1613Q95.8-4.1613 97.78-4.3553 99.76-4.559 101.74-4.8403 103.72-5.1216 105.74-5.4029 107.76-5.6939 107.53-3.3271 107.3-0.9602999999999999 105.85-0.6789999999999999 104.41-0.39769999999999994 102.74-0.1067 101.08 0.17459999999999998 99.37 0.4462 97.65 0.7178 96 0.9506 94.35 1.1834 92.94 1.3579999999999999 91.53 1.5229 90.45 1.6296 89.38 1.7266 88.84 1.7266ZM110.83-34.134299999999996L110.83-34.134299999999996Q111.39-34.92 112.02-35.1819 112.66-35.443799999999996 113.62-35.443799999999996L113.62-35.443799999999996Q114.87-35.443799999999996 115.46-34.987899999999996 116.06-34.532000000000004 116.06-33.270999999999994L116.06-33.270999999999994Q116.06-32.2622 115.57-30.564700000000002 115.07-28.8672 114.33-26.772000000000002 113.6-24.6768 112.75-22.339100000000002 111.9-20.0014 111.21-17.7122 110.53-15.4133 110.11-13.347199999999999 109.69-11.2811 109.8-9.719399999999998 109.92-8.148 110.72-7.2362 111.52-6.3341 113.22-6.401999999999999L113.22-6.401999999999999Q114.84-6.4796 116.21-7.2943999999999996 117.58-8.099499999999999 118.76-9.4575 119.95-10.8155 120.91-12.5809 121.88-14.356 122.69-16.3445 123.5-18.3233 124.15-20.4088 124.79-22.4846 125.3-24.4149 125.81-26.3549 126.2-28.062099999999997 126.6-29.779 126.9-31.0109L126.9-31.0109Q127-31.427999999999997 127.13-31.9712 127.26-32.5144 127.41-33.0673 127.56-33.6202 127.77-34.134299999999996 127.97-34.648399999999995 128.22-34.9685L128.22-34.9685Q128.45-35.2692 128.79-35.4632 129.14-35.666900000000005 129.53-35.7736 129.92-35.8803 130.33-35.9191 130.74-35.9579 131.12-35.9579L131.12-35.9579Q131.93-35.9579 132.35-35.5505 132.77-35.1431 132.89-34.5029 133.02-33.8627 132.95-33.0673 132.87-32.2622 132.69-31.4765 132.51-30.6908 132.31-30.0118 132.11-29.3328 132.01-28.915699999999998L132.01-28.915699999999998Q131.27-25.9378 130.58-22.7174 129.9-19.5067 128.97-16.4027 128.04-13.2987 126.74-10.466299999999999 125.43-7.6339 123.45-5.393199999999999 121.47-3.1525 118.69-1.6878 115.91-0.2231 112.02 0.1455L112.02 0.1455Q111.67 0.17459999999999998 111.33 0.1843 110.98 0.194 110.65 0.194L110.65 0.194Q108.01 0.194 106.48-0.873 104.94-1.9496999999999998 104.25-3.7539 103.57-5.5678 103.59-7.9637 103.62-10.369299999999999 104.09-13.0174 104.56-15.665499999999998 105.36-18.4106 106.16-21.1557 107-23.677699999999998 107.83-26.2094 108.61-28.3337 109.38-30.4677 109.81-31.8742L109.81-31.8742Q109.99-32.4562 110.23-33.0382 110.47-33.6202 110.83-34.134299999999996ZM150.72-20.340899999999998L150.72-20.340899999999998Q149.8-20.661 148.87-20.874399999999998 147.93-21.0781 146.99-21.349700000000002L146.99-21.349700000000002Q145.69-21.698900000000002 144.14-22.31 142.59-22.9308 141.27-23.8329 139.95-24.725299999999997 139.06-25.9378 138.18-27.1406 138.18-28.6926L138.18-28.6926Q138.18-30.1185 138.89-31.2437 139.6-32.3592 140.74-33.2225 141.88-34.0858 143.36-34.6872 144.83-35.2886 146.36-35.6766 147.9-36.0549 149.35-36.2392 150.79-36.4235 151.94-36.4235L151.94-36.4235 152.62-36.4235Q153.38-36.4235 154.34-36.3362 155.29-36.2586 156.29-36.045199999999994 157.29-35.831799999999994 158.26-35.4826 159.22-35.1237 159.99-34.590199999999996 160.75-34.066399999999994 161.21-33.3195 161.66-32.582300000000004 161.66-31.622L161.66-31.622Q161.66-30.7587 161.28-29.973 160.9-29.1873 160.3-28.5083 159.71-27.8293 158.98-27.2473 158.26-26.675 157.57-26.2288L157.57-26.2288Q156.91-25.7826 156.2-25.3558 155.49-24.929 154.65-24.929L154.65-24.929Q154.15-24.929 153.8-25.0939 153.46-25.2685 153.22-25.5401 152.98-25.8117 152.81-26.1706 152.65-26.529500000000002 152.5-26.9175L152.5-26.9175Q152.39-27.1891 152.31-27.373399999999997 152.22-27.5577 152.22-27.8584L152.22-27.8584Q152.22-28.1494 152.72-28.4501 153.23-28.7411 153.97-29.070899999999998 154.71-29.4104 155.53-29.7887 156.36-30.167 156.96-30.6132 157.57-31.059400000000004 157.84-31.573499999999996 158.11-32.087599999999995 157.73-32.4853 157.35-32.882999999999996 156.79-32.9509 156.23-33.028499999999994 155.57-33.028499999999994L155.57-33.028499999999994Q154.22-33.028499999999994 152.57-32.7472 150.92-32.4562 149.36-32.0197 147.8-31.573499999999996 146.5-31.030299999999997 145.21-30.487099999999998 144.6-29.973L144.6-29.973Q144.37-29.779 144.05-29.420099999999998 143.74-29.0612 143.74-28.7217L143.74-28.7217Q143.74-28.227 144.26-27.761400000000002 144.78-27.286099999999998 145.49-26.9175 146.2-26.5489 146.94-26.2773 147.67-26.005699999999997 148.08-25.889300000000002L148.08-25.889300000000002Q148.99-25.6177 149.92-25.384900000000002 150.85-25.142400000000002 151.76-24.8902 152.67-24.6283 153.58-24.3373 154.48-24.0366 155.34-23.619500000000002L155.34-23.619500000000002Q156.86-22.901699999999998 158.26-21.970499999999998 159.66-21.0296 160.71-19.836499999999997 161.76-18.6434 162.4-17.1787 163.03-15.713999999999999 163.03-13.938899999999999L163.03-13.938899999999999Q163.03-11.7758 162.03-9.4284 161.03-7.090699999999999 159.19-4.859699999999999 157.35-2.6384000000000003 154.78-0.6402 152.22 1.3579999999999999 149.09 2.8615 145.97 4.3553 142.38 5.238 138.79 6.111 134.93 6.111L134.93 6.111Q134.52 6.111 134.13 6.0916 133.73 6.081899999999999 133.33 6.0625L133.33 6.0625Q130.13 5.907299999999999 127.65 4.6754 125.18 3.4435 123.56 1.5423 121.95-0.3686 121.28-2.7451 120.61-5.1216 121.04-7.5950999999999995 121.47-10.0686 123.08-12.4451 124.69-14.831299999999999 127.61-16.6937L127.61-16.6937Q128.86-17.5085 130.52-18.0905 132.18-18.6725 133.97-19.0508 135.76-19.429100000000002 137.55-19.6134 139.34-19.7977 140.84-19.7977L140.84-19.7977Q141.96-19.7977 143.27-19.7201 144.57-19.6328 145.86-19.3612 147.14-19.0896 148.26-18.5852 149.37-18.0808 150.13-17.266000000000002L150.13-17.266000000000002Q150.41-16.9944 150.67-16.6161 150.92-16.2281 150.92-15.811L150.92-15.811Q150.92-15.52 150.76-15.316299999999998 150.59-15.1223 150.35-14.9865 150.11-14.8507 149.82-14.8022 149.53-14.7537 149.27-14.7537L149.27-14.7537Q148.1-14.7537 146.91-15.132 145.72-15.52 144.6-15.7916L144.6-15.7916Q142.92-16.2281 141.15-16.2281L141.15-16.2281Q139.32-16.2281 137.69-15.6364 136.07-15.044699999999999 134.86-13.9777 133.66-12.901 132.95-11.4072 132.23-9.9037 132.23-8.0801L132.23-8.0801Q132.23-7.2168 132.36-6.5184 132.49-5.8103 132.82-5.2477 133.15-4.6754 133.69-4.2486 134.24-3.8217999999999996 135.1-3.4726L135.1-3.4726Q136.02-3.1234 136.96-3.007 137.9-2.8809 138.89-2.8809L138.89-2.8809Q140.36-2.8809 142.31-3.2398 144.27-3.5987 146.34-4.2874 148.41-4.9761 150.41-5.955799999999999 152.42-6.9452 153.99-8.1868 155.57-9.4284 156.53-10.9222 157.5-12.416 157.5-14.084399999999999L157.5-14.084399999999999Q157.5-15.3454 156.84-16.3542 156.18-17.363 155.17-18.1293 154.17-18.8859 152.98-19.4485 151.79-20.0014 150.72-20.340899999999998ZM170.63-1.746L170.63-1.746Q170.47-1.3774 170.07-1.0573000000000001 169.66-0.7372 169.18-0.5044 168.7-0.2716 168.19-0.1358 167.68 0 167.3 0L167.3 0Q166.92-1.649 168.09-6.3923 169.25-11.1356 170.61-16.5967 171.97-22.0675 173.57-27.3637L173.57-27.3637Q173.77-28.0233 173.98-28.6441 174.18-29.2552 174.31-29.953599999999998L174.31-29.953599999999998Q173.77-29.779 173.57-29.8275 173.37-29.876 172.57-30.0312 171.77-30.196099999999998 171.29-31.5832 170.8-32.98 171.58-33.3195 172.35-33.6687 173.23-34.047 174.1-34.435 174.93-34.7745 175.75-35.1237 177.61-35.870599999999996 179.46-36.627199999999995 179.66-36.6951L179.66-36.6951Q179.89-36.77269999999999 180.1-36.7824 180.3-36.7921 180.53-36.7921L180.53-36.7921Q180.91-36.7921 181.43-36.6078 181.95-36.4235 182.41-36.1228 182.86-35.812400000000004 183.21-35.414699999999996 183.55-35.0267 183.38-34.4835 183.22-33.9403 181.94-33.1837 180.65-32.4368 180.55-32.1361L180.55-32.1361Q178.9-26.995099999999997 177.28-21.922 175.65-16.8489 174-11.6982L174-11.6982Q171.21-3.1815999999999995 171.03-2.6965999999999997 170.85-2.2213 170.63-1.746ZM182.74 0L182.74 0Q181.82 0 181.19-0.4268 180.55-0.8633 180.16-1.552 179.77-2.2407 179.56-3.1136999999999997 179.36-3.9867000000000004 179.27-4.898499999999999 179.18-5.8103 179.17-6.6639 179.16-7.5078 179.16-8.1286L179.16-8.1286Q179.16-10.543899999999999 179.32-12.9301 179.49-15.316299999999998 179.68-17.721899999999998 179.87-20.1178 180.03-22.5234 180.2-24.929 180.2-27.3346L180.2-27.3346Q180.2-27.926299999999998 180.16-28.517999999999997 180.12-29.1097 180.12-29.7014L180.12-29.7014Q180.12-30.147599999999997 180.36-30.574399999999997 180.6-31.0109 181-31.3601 181.39-31.719 181.9-31.9421 182.41-32.1652 182.94-32.1652L182.94-32.1652Q183.55-32.1652 184.12-31.8354 184.69-31.4959 185.11-30.7102 185.53-29.924500000000002 185.75-28.5956 185.96-27.2667 185.86-25.2976L185.86-25.2976Q185.76-23.3479 185.59-21.3885 185.43-19.429100000000002 185.28-17.4697 185.12-15.52 185.01-13.5606 184.89-11.6012 184.89-9.651499999999999L184.89-9.651499999999999Q184.89-9.3605 184.89-9.079199999999998 184.89-8.7882 184.95-8.4972L184.95-8.4972Q185.15-8.8949 185.31-9.273200000000001 185.48-9.651499999999999 185.66-10.0686L185.66-10.0686Q186.16-11.184099999999999 187.09-13.065900000000001 188.02-14.9477 189.24-17.266000000000002 190.46-19.5843 191.92-22.1645 193.38-24.7544 194.94-27.2764 196.5-29.798399999999997 198.11-32.1167 199.72-34.435 201.26-36.181 202.79-37.927 204.19-38.974599999999995 205.59-40.0222 206.73-40.0222L206.73-40.0222Q207.64-40.0222 208.34-39.2753 209.04-38.5187 209.47-36.840599999999995L209.47-36.840599999999995Q209.8-35.560199999999995 209.69-34.7648 209.57-33.9597 209.07-33.338899999999995 208.56-32.7084 207.67-32.087599999999995 206.78-31.4765 205.6-30.593799999999998 204.42-29.7014 202.95-28.3822 201.47-27.063 199.79-25.026 198.1-22.979300000000002 196.22-20.0596 194.34-17.1399 192.54-12.8913 190.73-8.6427 190.49-7.9055 190.25-7.1682999999999995 190.06-6.6154 189.87-6.0625 189.79-5.8588L189.79-5.8588Q189.64-5.4708 189.46-4.985799999999999 189.29-4.5105 189.07-4.0546 188.86-3.5987 188.61-3.1622 188.37-2.7354 188.07-2.4153000000000002L188.07-2.4153000000000002Q187.61-1.9496999999999998 186.98-1.5035 186.34-1.0573000000000001 185.63-0.7275 184.92-0.39769999999999994 184.17-0.194 183.42 0 182.74 0ZM206.78-20.2924Q208.28-24.5798 208.88-26.4519 209.47-28.323999999999998 209.9-30.0991L209.9-30.0991Q207.95-30.0021 206.01-29.8178 204.06-29.6238 202.11-29.6238L202.11-29.6238Q201.68-29.6238 201.18-29.7499 200.69-29.876 200.29-30.1088 199.9-30.3416 199.68-30.7102 199.47-31.078799999999998 199.57-31.554100000000002L199.57-31.554100000000002Q199.77-32.4368 201-33.0867 202.24-33.7463 204.15-34.2216 206.07-34.7066 208.52-35.0267 210.97-35.346799999999995 213.6-35.5408 216.23-35.7348 218.88-35.8512 221.53-35.9579 223.87-36.0064 226.21-36.0549 228.06-36.0937 229.91-36.1325 230.93-36.151900000000005L230.93-36.151900000000005Q231.21-36.151900000000005 231.6-36.142199999999995 231.99-36.1325 232.41-36.0646 232.83-36.0064 233.2-35.909400000000005 233.57-35.812400000000004 233.8-35.6378L233.8-35.6378Q234.2-35.317699999999995 234.2-34.823L234.2-34.823Q234.2-34.435 234.06-34.0082 233.92-33.591100000000004 233.75-33.2516L233.75-33.2516Q233.44-32.6599 232.92-32.310700000000004 232.4-31.9712 231.79-31.786900000000003 231.18-31.6026 230.52-31.525 229.86-31.447400000000002 229.25-31.427999999999997L229.25-31.427999999999997Q226.33-31.301900000000003 223.36-31.1467 220.39-30.9818 217.47-30.6423L217.47-30.6423Q217.22-30.593799999999998 216.94-30.555 216.66-30.5162 216.48-30.322200000000002L216.48-30.322200000000002Q216.13-29.4298 215.82-28.5083 215.52-27.5868 215.21-26.694399999999998L215.21-26.694399999999998Q215.11-26.403399999999998 214.92-25.9184 214.73-25.4431 214.53-24.909599999999998 214.32-24.3858 214.17-23.8814 214.02-23.377000000000002 213.99-23.0278L213.99-23.0278Q215.67-23.0278 217.34-23.1054 219.02-23.1733 220.7-23.1733L220.7-23.1733Q221.63-23.1733 222.17-22.901699999999998 222.7-22.6301 222.92-22.212999999999997 223.13-21.7959 223.08-21.2818 223.03-20.758 222.82-20.2827 222.6-19.7977 222.24-19.4097 221.89-19.012 221.48-18.817999999999998L221.48-18.817999999999998Q220.9-18.5658 220.24-18.4979L220.24-18.4979Q218.26-18.3039 216.25-18.177799999999998 214.25-18.0517 212.04-17.780099999999997L212.04-17.780099999999997Q211.88-17.5085 211.61-16.8683 211.33-16.2281 211.01-15.3454 210.69-14.453 210.34-13.4345 209.98-12.416 209.68-11.3781 209.37-10.3402 209.14-9.3799 208.91-8.419599999999999 208.8-7.6727 208.69-6.9161 208.74-6.4796 208.79-6.033399999999999 209.07-6.033399999999999L209.07-6.033399999999999Q209.8-6.033399999999999 210.53-6.1304 211.25-6.227399999999999 211.99-6.275899999999999L211.99-6.275899999999999Q214.68-6.547499999999999 217.48-6.8675999999999995 220.29-7.1876999999999995 223.01-7.1876999999999995L223.01-7.1876999999999995Q224.1-7.1876999999999995 224.73-6.9355 225.37-6.6735999999999995 225.65-6.275899999999999 225.93-5.8879 225.89-5.393199999999999 225.85-4.898499999999999 225.61-4.4232 225.37-3.9381999999999997 224.95-3.5308 224.53-3.1234 224.02-2.91L224.02-2.91Q223.51-2.6578 222.89-2.5608 222.27-2.4638 221.69-2.3862L221.69-2.3862Q217.98-1.9690999999999999 214.32-1.455 210.67-0.9311999999999999 206.96-0.46559999999999996L206.96-0.46559999999999996Q206.4-0.3201 205.94-0.3201L205.94-0.3201Q204.8-0.3201 204.17-1.0185 203.53-1.7266 203.26-2.8421000000000003 203-3.9673 203.04-5.335 203.07-6.7027 203.26-8.0122 203.46-9.331399999999999 203.71-10.4566 203.96-11.572099999999999 204.14-12.1929L204.14-12.1929Q204.5-13.4733 204.89-14.744 205.28-16.005 206.78-20.2924Z" transform="translate(-1.187741994857788, 40.02220153808594)">
								</path>
							</g>
							<!--  -->
							<!--  -->
							<!--  -->
							<!--  -->
							<!--  -->
							<!--  -->
							<!--  -->
						</g>
					</g>
					<!--  -->
				</g>
			</g>
			<!--  -->
		</g>
	</g>
	<mask id="225a0329-d017-42d6-9327-826a8756ddb6">
		<g fill="white">
			<rect data-gra="graph-name-bg" stroke-width="2" class="i-icon-bg" x="0" y="0" width="308.9351806640625" height="77.84265518188477" rx="10" ry="10">
			</rect>
		</g>
		<g transform="translate(10,10)" fill="black">
			<g data-gra="path-name" fill-rule="" class="tp-name" fill-opacity="1">
				<g transform="scale(1.2399999999999864)">
					<g>
						<path d="M8.43-20.2924Q9.93-24.5798 10.52-26.4519 11.12-28.323999999999998 11.55-30.0991L11.55-30.0991Q9.6-30.0021 7.66-29.8178 5.71-29.6238 3.76-29.6238L3.76-29.6238Q3.33-29.6238 2.83-29.7499 2.34-29.876 1.94-30.1088 1.55-30.3416 1.33-30.7102 1.12-31.078799999999998 1.22-31.554100000000002L1.22-31.554100000000002Q1.42-32.4368 2.65-33.0867 3.88-33.7463 5.8-34.2216 7.72-34.7066 10.17-35.0267 12.62-35.346799999999995 15.25-35.5408 17.88-35.7348 20.53-35.8512 23.18-35.9579 25.52-36.0064 27.85-36.0549 29.71-36.0937 31.56-36.1325 32.58-36.151900000000005L32.58-36.151900000000005Q32.86-36.151900000000005 33.25-36.142199999999995 33.64-36.1325 34.06-36.0646 34.48-36.0064 34.85-35.909400000000005 35.22-35.812400000000004 35.45-35.6378L35.45-35.6378Q35.85-35.317699999999995 35.85-34.823L35.85-34.823Q35.85-34.435 35.71-34.0082 35.57-33.591100000000004 35.39-33.2516L35.39-33.2516Q35.09-32.6599 34.57-32.310700000000004 34.05-31.9712 33.44-31.786900000000003 32.83-31.6026 32.17-31.525 31.51-31.447400000000002 30.9-31.427999999999997L30.9-31.427999999999997Q27.98-31.301900000000003 25.01-31.1467 22.04-30.9818 19.12-30.6423L19.12-30.6423Q18.87-30.593799999999998 18.59-30.555 18.31-30.5162 18.13-30.322200000000002L18.13-30.322200000000002Q17.77-29.4298 17.47-28.5083 17.16-27.5868 16.86-26.694399999999998L16.86-26.694399999999998Q16.76-26.403399999999998 16.57-25.9184 16.38-25.4431 16.17-24.909599999999998 15.97-24.3858 15.82-23.8814 15.67-23.377000000000002 15.64-23.0278L15.64-23.0278Q17.32-23.0278 18.99-23.1054 20.67-23.1733 22.34-23.1733L22.34-23.1733Q23.28-23.1733 23.82-22.901699999999998 24.35-22.6301 24.57-22.212999999999997 24.78-21.7959 24.73-21.2818 24.68-20.758 24.46-20.2827 24.25-19.7977 23.89-19.4097 23.54-19.012 23.13-18.817999999999998L23.13-18.817999999999998Q22.55-18.5658 21.89-18.4979L21.89-18.4979Q19.91-18.3039 17.9-18.177799999999998 15.89-18.0517 13.69-17.780099999999997L13.69-17.780099999999997Q13.53-17.5085 13.25-16.8683 12.97-16.2281 12.66-15.3454 12.34-14.453 11.98-13.4345 11.63-12.416 11.32-11.3781 11.02-10.3402 10.79-9.3799 10.56-8.419599999999999 10.45-7.6727 10.33-6.9161 10.38-6.4796 10.44-6.033399999999999 10.71-6.033399999999999L10.71-6.033399999999999Q11.45-6.033399999999999 12.17-6.1304 12.9-6.227399999999999 13.63-6.275899999999999L13.63-6.275899999999999Q16.33-6.547499999999999 19.13-6.8675999999999995 21.94-7.1876999999999995 24.65-7.1876999999999995L24.65-7.1876999999999995Q25.75-7.1876999999999995 26.38-6.9355 27.02-6.6735999999999995 27.29-6.275899999999999 27.57-5.8879 27.54-5.393199999999999 27.5-4.898499999999999 27.26-4.4232 27.02-3.9381999999999997 26.6-3.5308 26.18-3.1234 25.67-2.91L25.67-2.91Q25.16-2.6578 24.54-2.5608 23.92-2.4638 23.33-2.3862L23.33-2.3862Q19.63-1.9690999999999999 15.97-1.455 12.31-0.9311999999999999 8.61-0.46559999999999996L8.61-0.46559999999999996Q8.05-0.3201 7.59-0.3201L7.59-0.3201Q6.45-0.3201 5.81-1.0185 5.18-1.7266 4.91-2.8421000000000003 4.65-3.9673 4.68-5.335 4.72-6.7027 4.91-8.0122 5.1-9.331399999999999 5.36-10.4566 5.61-11.572099999999999 5.79-12.1929L5.79-12.1929Q6.14-13.4733 6.54-14.744 6.93-16.005 8.43-20.2924ZM34.86-1.3774L34.86-1.3774Q34.43-1.1058 34.02-0.9894 33.62-0.8633 33.08-0.8633L33.08-0.8633Q32.58-0.8633 32.04-1.0185 31.51-1.1834 31.07-1.4938 30.62-1.7945 30.34-2.2407 30.06-2.6869 30.06-3.2301L30.06-3.2301Q30.06-3.6957 30.33-4.074 30.6-4.462 30.88-4.8015L30.88-4.8015Q31.05-4.9955 31.6-5.6551 32.14-6.305 32.94-7.2265 33.74-8.148 34.68-9.273200000000001 35.62-10.3887 36.6-11.543 37.58-12.6876 38.48-13.764299999999999 39.38-14.8507 40.09-15.713999999999999 40.8-16.5773 41.22-17.1205 41.64-17.6637 41.64-17.7316L41.64-17.7316Q41.64-18.0808 41.13-18.9441 40.63-19.7977 39.88-21.0296 39.13-22.261499999999998 38.25-23.7941 37.38-25.317 36.63-27.0048 35.88-28.6926 35.37-30.4677 34.86-32.2428 34.86-33.9888L34.86-33.9888Q34.86-34.2313 35.04-34.532000000000004 35.22-34.823 35.47-35.0946 35.72-35.3662 36-35.599000000000004 36.28-35.831799999999994 36.46-35.9579L36.46-35.9579Q36.89-36.2295 37.36-36.355599999999995 37.83-36.472 38.34-36.472L38.34-36.472Q39.46-36.472 40.33-35.666900000000005 41.21-34.8521 41.91-33.5523 42.61-32.2622 43.15-30.6908 43.7-29.1097 44.15-27.5674 44.61-26.0348 45-24.7156 45.4-23.3964 45.8-22.6592L45.8-22.6592Q47.63-25.317 49.78-27.8293 51.92-30.3416 53.96-32.882999999999996L53.96-32.882999999999996Q54.41-33.4747 54.89-34.095499999999994 55.38-34.726 55.91-35.2692L55.91-35.2692Q56.49-35.7833 57.18-36.1325 57.87-36.472 58.68-36.472L58.68-36.472Q59.08-36.472 59.55-36.268299999999996 60.02-36.0549 60.43-35.7251 60.84-35.3953 61.1-34.9685 61.37-34.551399999999994 61.37-34.134299999999996L61.37-34.134299999999996Q61.37-33.9112 61.28-33.707499999999996 61.19-33.4941 61.06-33.3001L61.06-33.3001Q60.76-32.7763 60.35-32.300999999999995 59.95-31.815999999999995 59.54-31.3504L59.54-31.3504Q58.25-29.798399999999997 56.85-28.227 55.45-26.645899999999997 54.06-25.0357 52.66-23.4255 51.34-21.7862 50.02-20.1469 48.85-18.5173L48.85-18.5173Q48.78-18.420299999999997 48.67-18.265099999999997 48.57-18.1002 48.57-17.9838L48.57-17.9838Q48.57-17.8577 49.09-17.0138 49.61-16.1796 50.46-14.8895 51.31-13.5994 52.42-11.9795 53.52-10.369299999999999 54.68-8.6815 55.83-6.9937 56.96-5.3738 58.09-3.7441999999999998 59-2.425 59.9-1.1058 60.51-0.2231 61.12 0.6692999999999999 61.22 0.8341999999999999L61.22 0.8341999999999999Q61.98 2.1437 62.38 3.2107 62.79 4.2874 62.84 5.0343 62.89 5.7909 62.56 6.208 62.23 6.6251 61.52 6.6251L61.52 6.6251Q60.25 6.6251 57.87 5.2185999999999995L57.87 5.2185999999999995Q57.41 4.946999999999999 57.04 4.578399999999999 56.67 4.2097999999999995 56.34 3.7927L56.34 3.7927Q55.91 3.2301 55.58 2.5996 55.25 1.9690999999999999 54.77 1.4064999999999999L54.77 1.4064999999999999Q53.78 0.17459999999999998 52.5-1.5423 51.21-3.2495 49.85-5.1216 48.5-6.9937 47.14-8.9046 45.78-10.8155 44.61-12.4645L44.61-12.4645Q44.26-12.1444 43.96-11.7855 43.67-11.426599999999999 43.39-11.058L43.39-11.058Q42.48-9.9522 41.73-9.098600000000001 40.98-8.2547 40.26-7.4593 39.53-6.6735999999999995 38.77-5.8393999999999995 38.01-4.9955 37.07-3.8896999999999995L37.07-3.8896999999999995Q36.94-3.7441999999999998 36.63-3.3659 36.31-2.9778999999999995 35.95-2.5608 35.6-2.1437 35.29-1.7945 34.99-1.455 34.86-1.3774ZM81.81-14.016499999999999L81.81-14.016499999999999Q82.29-14.3075 82.72-14.3075L82.72-14.3075Q83.41-14.3075 83.67-13.58 83.94-12.8525 83.94-11.8437L83.94-11.8437Q83.94-11.0386 83.66-10.233500000000001 83.38-9.4284 82.94-8.6815 82.49-7.9346 81.94-7.2556 81.38-6.5766 80.84-6.014L80.84-6.014Q79.45-4.6075 77.75-3.5016999999999996 76.04-2.3862 74.15-1.6101999999999999 72.26-0.8341999999999999 70.27-0.41709999999999997 68.28 0 66.24 0L66.24 0Q63.35 0 61.38-0.873 59.41-1.746 58.21-3.2301 57-4.7044999999999995 56.49-6.634799999999999 55.99-8.5748 56-10.6894 56.01-12.803999999999998 56.46-14.9574 56.9-17.1205 57.64-19.0411L57.64-19.0411Q58.42-21.107200000000002 59.63-23.2218 60.84-25.3461 62.38-27.3152 63.93-29.2843 65.8-31.020599999999998 67.67-32.7569 69.79-34.0373 71.91-35.317699999999995 74.23-36.0549 76.55-36.7921 79.02-36.7921L79.02-36.7921Q80.36-36.7921 81.57-36.4235 82.77-36.0549 83.71-35.3274 84.65-34.5999 85.2-33.5426 85.74-32.4853 85.74-31.1079L85.74-31.1079Q85.74-29.5753 85.36-28.1785 84.98-26.772000000000002 84.35-25.5692 83.71-24.3567 82.86-23.386699999999998 82.01-22.4167 81.08-21.708599999999997 80.16-21.0102 79.19-20.6222 78.23-20.2439 77.37-20.2439L77.37-20.2439Q76.58-20.2439 75.92-20.564 75.26-20.8841 74.8-21.5825 74.34-22.2906 74.12-23.386699999999998 73.89-24.482799999999997 73.99-26.005699999999997L73.99-26.005699999999997Q74.06-26.8981 74.5-27.4025 74.93-27.9069 75.55-28.2076 76.17-28.517999999999997 76.88-28.7217 77.59-28.915699999999998 78.19-29.197 78.79-29.4783 79.18-29.9148 79.57-30.3416 79.55-31.1079L79.55-31.1079Q79.55-31.3504 79.5-31.4765L79.5-31.4765Q79.32-31.6026 79.16-31.6123 78.99-31.622 78.79-31.622L78.79-31.622Q77.16-31.622 75.49-30.8557 73.81-30.0991 72.21-28.7799 70.61-27.4607 69.13-25.7147 67.64-23.968700000000002 66.4-21.989900000000002 65.15-20.0208 64.2-17.9256 63.25-15.840099999999998 62.69-13.861299999999998 62.13-11.892199999999999 62.03-10.1462 61.93-8.4002 62.41-7.0809999999999995 62.89-5.7618 63.98-4.9955 65.08-4.2389 66.9-4.2389L66.9-4.2389Q69.62-4.2389 71.63-4.859699999999999 73.63-5.4902 75.09-6.4796 76.55-7.4593 77.58-8.633000000000001 78.61-9.8067 79.36-10.9028 80.11-11.998899999999999 80.68-12.8428 81.25-13.696399999999999 81.81-14.016499999999999ZM88.84 1.7266L88.84 1.7266Q88.31 1.7266 87.67 1.5907999999999998 87.04 1.455 86.48 1.1737 85.92 0.8827 85.54 0.4268 85.16-0.029099999999999997 85.16-0.6692999999999999L85.16-0.6692999999999999Q85.16-0.9602999999999999 85.29-1.2027999999999999 85.41-1.455 85.62-1.6781 85.82-1.9012 86.05-2.0854999999999997 86.28-2.2697999999999996 86.48-2.4638L86.48-2.4638Q86.91-2.8809 87.19-3.4435 87.47-4.0158 87.67-4.578399999999999L87.67-4.578399999999999Q88.89-8.0025 89.97-11.5139 91.05-15.0253 92.04-18.5658 93.03-22.116 93.96-25.6759 94.88-29.2358 95.82-32.7278L95.82-32.7278Q95.98-33.3001 96.08-33.99849999999999 96.18-34.7066 96.36-35.308 96.54-35.909400000000005 96.85-36.3265 97.17-36.7436 97.73-36.7436L97.73-36.7436Q97.93-36.7436 98.36-36.627199999999995L98.36-36.627199999999995Q99.18-36.3265 99.92-36.0064 100.67-35.686299999999996 101.26-35.308 101.84-34.92 102.2-34.4835 102.55-34.0373 102.55-33.5426L102.55-33.5426Q102.55-33.2516 102.45-32.7763 102.35-32.310700000000004 102.2-31.7966 102.04-31.2825 101.89-30.7975 101.74-30.322200000000002 101.64-30.0021L101.64-30.0021Q101.03-28.0233 100.33-25.763199999999998 99.63-23.493399999999998 98.92-21.116899999999998 98.21-18.7404 97.49-16.3639 96.76-13.9874 96.1-11.7758 95.44-9.554499999999999 94.85-7.6145 94.25-5.6648 93.79-4.1613L93.79-4.1613Q95.8-4.1613 97.78-4.3553 99.76-4.559 101.74-4.8403 103.72-5.1216 105.74-5.4029 107.76-5.6939 107.53-3.3271 107.3-0.9602999999999999 105.85-0.6789999999999999 104.41-0.39769999999999994 102.74-0.1067 101.08 0.17459999999999998 99.37 0.4462 97.65 0.7178 96 0.9506 94.35 1.1834 92.94 1.3579999999999999 91.53 1.5229 90.45 1.6296 89.38 1.7266 88.84 1.7266ZM110.83-34.134299999999996L110.83-34.134299999999996Q111.39-34.92 112.02-35.1819 112.66-35.443799999999996 113.62-35.443799999999996L113.62-35.443799999999996Q114.87-35.443799999999996 115.46-34.987899999999996 116.06-34.532000000000004 116.06-33.270999999999994L116.06-33.270999999999994Q116.06-32.2622 115.57-30.564700000000002 115.07-28.8672 114.33-26.772000000000002 113.6-24.6768 112.75-22.339100000000002 111.9-20.0014 111.21-17.7122 110.53-15.4133 110.11-13.347199999999999 109.69-11.2811 109.8-9.719399999999998 109.92-8.148 110.72-7.2362 111.52-6.3341 113.22-6.401999999999999L113.22-6.401999999999999Q114.84-6.4796 116.21-7.2943999999999996 117.58-8.099499999999999 118.76-9.4575 119.95-10.8155 120.91-12.5809 121.88-14.356 122.69-16.3445 123.5-18.3233 124.15-20.4088 124.79-22.4846 125.3-24.4149 125.81-26.3549 126.2-28.062099999999997 126.6-29.779 126.9-31.0109L126.9-31.0109Q127-31.427999999999997 127.13-31.9712 127.26-32.5144 127.41-33.0673 127.56-33.6202 127.77-34.134299999999996 127.97-34.648399999999995 128.22-34.9685L128.22-34.9685Q128.45-35.2692 128.79-35.4632 129.14-35.666900000000005 129.53-35.7736 129.92-35.8803 130.33-35.9191 130.74-35.9579 131.12-35.9579L131.12-35.9579Q131.93-35.9579 132.35-35.5505 132.77-35.1431 132.89-34.5029 133.02-33.8627 132.95-33.0673 132.87-32.2622 132.69-31.4765 132.51-30.6908 132.31-30.0118 132.11-29.3328 132.01-28.915699999999998L132.01-28.915699999999998Q131.27-25.9378 130.58-22.7174 129.9-19.5067 128.97-16.4027 128.04-13.2987 126.74-10.466299999999999 125.43-7.6339 123.45-5.393199999999999 121.47-3.1525 118.69-1.6878 115.91-0.2231 112.02 0.1455L112.02 0.1455Q111.67 0.17459999999999998 111.33 0.1843 110.98 0.194 110.65 0.194L110.65 0.194Q108.01 0.194 106.48-0.873 104.94-1.9496999999999998 104.25-3.7539 103.57-5.5678 103.59-7.9637 103.62-10.369299999999999 104.09-13.0174 104.56-15.665499999999998 105.36-18.4106 106.16-21.1557 107-23.677699999999998 107.83-26.2094 108.61-28.3337 109.38-30.4677 109.81-31.8742L109.81-31.8742Q109.99-32.4562 110.23-33.0382 110.47-33.6202 110.83-34.134299999999996ZM150.72-20.340899999999998L150.72-20.340899999999998Q149.8-20.661 148.87-20.874399999999998 147.93-21.0781 146.99-21.349700000000002L146.99-21.349700000000002Q145.69-21.698900000000002 144.14-22.31 142.59-22.9308 141.27-23.8329 139.95-24.725299999999997 139.06-25.9378 138.18-27.1406 138.18-28.6926L138.18-28.6926Q138.18-30.1185 138.89-31.2437 139.6-32.3592 140.74-33.2225 141.88-34.0858 143.36-34.6872 144.83-35.2886 146.36-35.6766 147.9-36.0549 149.35-36.2392 150.79-36.4235 151.94-36.4235L151.94-36.4235 152.62-36.4235Q153.38-36.4235 154.34-36.3362 155.29-36.2586 156.29-36.045199999999994 157.29-35.831799999999994 158.26-35.4826 159.22-35.1237 159.99-34.590199999999996 160.75-34.066399999999994 161.21-33.3195 161.66-32.582300000000004 161.66-31.622L161.66-31.622Q161.66-30.7587 161.28-29.973 160.9-29.1873 160.3-28.5083 159.71-27.8293 158.98-27.2473 158.26-26.675 157.57-26.2288L157.57-26.2288Q156.91-25.7826 156.2-25.3558 155.49-24.929 154.65-24.929L154.65-24.929Q154.15-24.929 153.8-25.0939 153.46-25.2685 153.22-25.5401 152.98-25.8117 152.81-26.1706 152.65-26.529500000000002 152.5-26.9175L152.5-26.9175Q152.39-27.1891 152.31-27.373399999999997 152.22-27.5577 152.22-27.8584L152.22-27.8584Q152.22-28.1494 152.72-28.4501 153.23-28.7411 153.97-29.070899999999998 154.71-29.4104 155.53-29.7887 156.36-30.167 156.96-30.6132 157.57-31.059400000000004 157.84-31.573499999999996 158.11-32.087599999999995 157.73-32.4853 157.35-32.882999999999996 156.79-32.9509 156.23-33.028499999999994 155.57-33.028499999999994L155.57-33.028499999999994Q154.22-33.028499999999994 152.57-32.7472 150.92-32.4562 149.36-32.0197 147.8-31.573499999999996 146.5-31.030299999999997 145.21-30.487099999999998 144.6-29.973L144.6-29.973Q144.37-29.779 144.05-29.420099999999998 143.74-29.0612 143.74-28.7217L143.74-28.7217Q143.74-28.227 144.26-27.761400000000002 144.78-27.286099999999998 145.49-26.9175 146.2-26.5489 146.94-26.2773 147.67-26.005699999999997 148.08-25.889300000000002L148.08-25.889300000000002Q148.99-25.6177 149.92-25.384900000000002 150.85-25.142400000000002 151.76-24.8902 152.67-24.6283 153.58-24.3373 154.48-24.0366 155.34-23.619500000000002L155.34-23.619500000000002Q156.86-22.901699999999998 158.26-21.970499999999998 159.66-21.0296 160.71-19.836499999999997 161.76-18.6434 162.4-17.1787 163.03-15.713999999999999 163.03-13.938899999999999L163.03-13.938899999999999Q163.03-11.7758 162.03-9.4284 161.03-7.090699999999999 159.19-4.859699999999999 157.35-2.6384000000000003 154.78-0.6402 152.22 1.3579999999999999 149.09 2.8615 145.97 4.3553 142.38 5.238 138.79 6.111 134.93 6.111L134.93 6.111Q134.52 6.111 134.13 6.0916 133.73 6.081899999999999 133.33 6.0625L133.33 6.0625Q130.13 5.907299999999999 127.65 4.6754 125.18 3.4435 123.56 1.5423 121.95-0.3686 121.28-2.7451 120.61-5.1216 121.04-7.5950999999999995 121.47-10.0686 123.08-12.4451 124.69-14.831299999999999 127.61-16.6937L127.61-16.6937Q128.86-17.5085 130.52-18.0905 132.18-18.6725 133.97-19.0508 135.76-19.429100000000002 137.55-19.6134 139.34-19.7977 140.84-19.7977L140.84-19.7977Q141.96-19.7977 143.27-19.7201 144.57-19.6328 145.86-19.3612 147.14-19.0896 148.26-18.5852 149.37-18.0808 150.13-17.266000000000002L150.13-17.266000000000002Q150.41-16.9944 150.67-16.6161 150.92-16.2281 150.92-15.811L150.92-15.811Q150.92-15.52 150.76-15.316299999999998 150.59-15.1223 150.35-14.9865 150.11-14.8507 149.82-14.8022 149.53-14.7537 149.27-14.7537L149.27-14.7537Q148.1-14.7537 146.91-15.132 145.72-15.52 144.6-15.7916L144.6-15.7916Q142.92-16.2281 141.15-16.2281L141.15-16.2281Q139.32-16.2281 137.69-15.6364 136.07-15.044699999999999 134.86-13.9777 133.66-12.901 132.95-11.4072 132.23-9.9037 132.23-8.0801L132.23-8.0801Q132.23-7.2168 132.36-6.5184 132.49-5.8103 132.82-5.2477 133.15-4.6754 133.69-4.2486 134.24-3.8217999999999996 135.1-3.4726L135.1-3.4726Q136.02-3.1234 136.96-3.007 137.9-2.8809 138.89-2.8809L138.89-2.8809Q140.36-2.8809 142.31-3.2398 144.27-3.5987 146.34-4.2874 148.41-4.9761 150.41-5.955799999999999 152.42-6.9452 153.99-8.1868 155.57-9.4284 156.53-10.9222 157.5-12.416 157.5-14.084399999999999L157.5-14.084399999999999Q157.5-15.3454 156.84-16.3542 156.18-17.363 155.17-18.1293 154.17-18.8859 152.98-19.4485 151.79-20.0014 150.72-20.340899999999998ZM170.63-1.746L170.63-1.746Q170.47-1.3774 170.07-1.0573000000000001 169.66-0.7372 169.18-0.5044 168.7-0.2716 168.19-0.1358 167.68 0 167.3 0L167.3 0Q166.92-1.649 168.09-6.3923 169.25-11.1356 170.61-16.5967 171.97-22.0675 173.57-27.3637L173.57-27.3637Q173.77-28.0233 173.98-28.6441 174.18-29.2552 174.31-29.953599999999998L174.31-29.953599999999998Q173.77-29.779 173.57-29.8275 173.37-29.876 172.57-30.0312 171.77-30.196099999999998 171.29-31.5832 170.8-32.98 171.58-33.3195 172.35-33.6687 173.23-34.047 174.1-34.435 174.93-34.7745 175.75-35.1237 177.61-35.870599999999996 179.46-36.627199999999995 179.66-36.6951L179.66-36.6951Q179.89-36.77269999999999 180.1-36.7824 180.3-36.7921 180.53-36.7921L180.53-36.7921Q180.91-36.7921 181.43-36.6078 181.95-36.4235 182.41-36.1228 182.86-35.812400000000004 183.21-35.414699999999996 183.55-35.0267 183.38-34.4835 183.22-33.9403 181.94-33.1837 180.65-32.4368 180.55-32.1361L180.55-32.1361Q178.9-26.995099999999997 177.28-21.922 175.65-16.8489 174-11.6982L174-11.6982Q171.21-3.1815999999999995 171.03-2.6965999999999997 170.85-2.2213 170.63-1.746ZM182.74 0L182.74 0Q181.82 0 181.19-0.4268 180.55-0.8633 180.16-1.552 179.77-2.2407 179.56-3.1136999999999997 179.36-3.9867000000000004 179.27-4.898499999999999 179.18-5.8103 179.17-6.6639 179.16-7.5078 179.16-8.1286L179.16-8.1286Q179.16-10.543899999999999 179.32-12.9301 179.49-15.316299999999998 179.68-17.721899999999998 179.87-20.1178 180.03-22.5234 180.2-24.929 180.2-27.3346L180.2-27.3346Q180.2-27.926299999999998 180.16-28.517999999999997 180.12-29.1097 180.12-29.7014L180.12-29.7014Q180.12-30.147599999999997 180.36-30.574399999999997 180.6-31.0109 181-31.3601 181.39-31.719 181.9-31.9421 182.41-32.1652 182.94-32.1652L182.94-32.1652Q183.55-32.1652 184.12-31.8354 184.69-31.4959 185.11-30.7102 185.53-29.924500000000002 185.75-28.5956 185.96-27.2667 185.86-25.2976L185.86-25.2976Q185.76-23.3479 185.59-21.3885 185.43-19.429100000000002 185.28-17.4697 185.12-15.52 185.01-13.5606 184.89-11.6012 184.89-9.651499999999999L184.89-9.651499999999999Q184.89-9.3605 184.89-9.079199999999998 184.89-8.7882 184.95-8.4972L184.95-8.4972Q185.15-8.8949 185.31-9.273200000000001 185.48-9.651499999999999 185.66-10.0686L185.66-10.0686Q186.16-11.184099999999999 187.09-13.065900000000001 188.02-14.9477 189.24-17.266000000000002 190.46-19.5843 191.92-22.1645 193.38-24.7544 194.94-27.2764 196.5-29.798399999999997 198.11-32.1167 199.72-34.435 201.26-36.181 202.79-37.927 204.19-38.974599999999995 205.59-40.0222 206.73-40.0222L206.73-40.0222Q207.64-40.0222 208.34-39.2753 209.04-38.5187 209.47-36.840599999999995L209.47-36.840599999999995Q209.8-35.560199999999995 209.69-34.7648 209.57-33.9597 209.07-33.338899999999995 208.56-32.7084 207.67-32.087599999999995 206.78-31.4765 205.6-30.593799999999998 204.42-29.7014 202.95-28.3822 201.47-27.063 199.79-25.026 198.1-22.979300000000002 196.22-20.0596 194.34-17.1399 192.54-12.8913 190.73-8.6427 190.49-7.9055 190.25-7.1682999999999995 190.06-6.6154 189.87-6.0625 189.79-5.8588L189.79-5.8588Q189.64-5.4708 189.46-4.985799999999999 189.29-4.5105 189.07-4.0546 188.86-3.5987 188.61-3.1622 188.37-2.7354 188.07-2.4153000000000002L188.07-2.4153000000000002Q187.61-1.9496999999999998 186.98-1.5035 186.34-1.0573000000000001 185.63-0.7275 184.92-0.39769999999999994 184.17-0.194 183.42 0 182.74 0ZM206.78-20.2924Q208.28-24.5798 208.88-26.4519 209.47-28.323999999999998 209.9-30.0991L209.9-30.0991Q207.95-30.0021 206.01-29.8178 204.06-29.6238 202.11-29.6238L202.11-29.6238Q201.68-29.6238 201.18-29.7499 200.69-29.876 200.29-30.1088 199.9-30.3416 199.68-30.7102 199.47-31.078799999999998 199.57-31.554100000000002L199.57-31.554100000000002Q199.77-32.4368 201-33.0867 202.24-33.7463 204.15-34.2216 206.07-34.7066 208.52-35.0267 210.97-35.346799999999995 213.6-35.5408 216.23-35.7348 218.88-35.8512 221.53-35.9579 223.87-36.0064 226.21-36.0549 228.06-36.0937 229.91-36.1325 230.93-36.151900000000005L230.93-36.151900000000005Q231.21-36.151900000000005 231.6-36.142199999999995 231.99-36.1325 232.41-36.0646 232.83-36.0064 233.2-35.909400000000005 233.57-35.812400000000004 233.8-35.6378L233.8-35.6378Q234.2-35.317699999999995 234.2-34.823L234.2-34.823Q234.2-34.435 234.06-34.0082 233.92-33.591100000000004 233.75-33.2516L233.75-33.2516Q233.44-32.6599 232.92-32.310700000000004 232.4-31.9712 231.79-31.786900000000003 231.18-31.6026 230.52-31.525 229.86-31.447400000000002 229.25-31.427999999999997L229.25-31.427999999999997Q226.33-31.301900000000003 223.36-31.1467 220.39-30.9818 217.47-30.6423L217.47-30.6423Q217.22-30.593799999999998 216.94-30.555 216.66-30.5162 216.48-30.322200000000002L216.48-30.322200000000002Q216.13-29.4298 215.82-28.5083 215.52-27.5868 215.21-26.694399999999998L215.21-26.694399999999998Q215.11-26.403399999999998 214.92-25.9184 214.73-25.4431 214.53-24.909599999999998 214.32-24.3858 214.17-23.8814 214.02-23.377000000000002 213.99-23.0278L213.99-23.0278Q215.67-23.0278 217.34-23.1054 219.02-23.1733 220.7-23.1733L220.7-23.1733Q221.63-23.1733 222.17-22.901699999999998 222.7-22.6301 222.92-22.212999999999997 223.13-21.7959 223.08-21.2818 223.03-20.758 222.82-20.2827 222.6-19.7977 222.24-19.4097 221.89-19.012 221.48-18.817999999999998L221.48-18.817999999999998Q220.9-18.5658 220.24-18.4979L220.24-18.4979Q218.26-18.3039 216.25-18.177799999999998 214.25-18.0517 212.04-17.780099999999997L212.04-17.780099999999997Q211.88-17.5085 211.61-16.8683 211.33-16.2281 211.01-15.3454 210.69-14.453 210.34-13.4345 209.98-12.416 209.68-11.3781 209.37-10.3402 209.14-9.3799 208.91-8.419599999999999 208.8-7.6727 208.69-6.9161 208.74-6.4796 208.79-6.033399999999999 209.07-6.033399999999999L209.07-6.033399999999999Q209.8-6.033399999999999 210.53-6.1304 211.25-6.227399999999999 211.99-6.275899999999999L211.99-6.275899999999999Q214.68-6.547499999999999 217.48-6.8675999999999995 220.29-7.1876999999999995 223.01-7.1876999999999995L223.01-7.1876999999999995Q224.1-7.1876999999999995 224.73-6.9355 225.37-6.6735999999999995 225.65-6.275899999999999 225.93-5.8879 225.89-5.393199999999999 225.85-4.898499999999999 225.61-4.4232 225.37-3.9381999999999997 224.95-3.5308 224.53-3.1234 224.02-2.91L224.02-2.91Q223.51-2.6578 222.89-2.5608 222.27-2.4638 221.69-2.3862L221.69-2.3862Q217.98-1.9690999999999999 214.32-1.455 210.67-0.9311999999999999 206.96-0.46559999999999996L206.96-0.46559999999999996Q206.4-0.3201 205.94-0.3201L205.94-0.3201Q204.8-0.3201 204.17-1.0185 203.53-1.7266 203.26-2.8421000000000003 203-3.9673 203.04-5.335 203.07-6.7027 203.26-8.0122 203.46-9.331399999999999 203.71-10.4566 203.96-11.572099999999999 204.14-12.1929L204.14-12.1929Q204.5-13.4733 204.89-14.744 205.28-16.005 206.78-20.2924Z" transform="translate(-1.187741994857788, 40.02220153808594)">
						</path>
					</g>
				</g>
			</g>
		</g>
	</mask>
	<defs v-gra="od">
	</defs>
</svg>
